<svg width="586" height="587" viewBox="0 0 586 587" fill="none" xmlns="http://www.w3.org/2000/svg">
<path d="M458.859 0H252.788C113.062 0 0 113.275 0 252.788V449.259H54.6108V252.788C54.6108 143.353 143.353 54.6109 252.788 54.6109H458.859C498.964 54.6109 531.389 87.036 531.389 127.141V333.211C531.389 442.646 442.647 531.389 333.212 531.389H243.189C226.976 531.389 213.964 518.376 213.964 502.164V436.46H256.842C350.704 436.46 426.861 360.304 426.861 266.441V197.964C426.861 181.965 413.848 168.952 397.849 168.952H329.372C235.509 168.952 159.353 245.109 159.353 338.971V525.203C159.353 558.908 186.658 586.213 220.363 586.213H333.212C472.938 586.213 586 472.938 586 333.425V127.354C586 56.9574 529.043 0 458.859 0ZM213.964 338.971C213.964 275.401 265.588 223.776 329.158 223.776H372.036V266.654C372.036 330.225 320.199 381.849 256.842 381.849H213.964V338.971Z" fill="#1E1E1E"/>
<path d="M97.9155 449.203L54.6108 509.787L0 586.157V525.573L15.1459 504.454L53.9708 450.056L54.6108 449.203H97.9155Z" fill="#1E1E1E"/>
</svg>
