<svg width="70" height="70" viewBox="0 0 70 70" fill="none" xmlns="http://www.w3.org/2000/svg">
<path d="M54.8046 0H30.1985C13.5142 0 0.013916 13.5257 0.013916 30.1845V53.6444H6.53479V30.1845C6.53479 17.1173 17.1312 6.52088 30.1985 6.52088H54.8046C59.5934 6.52088 63.4651 10.3927 63.4651 15.1814V39.7876C63.4651 52.8548 52.8687 63.4512 39.8015 63.4512H29.0522C27.1163 63.4512 25.5625 61.8974 25.5625 59.9615V52.1161H30.6824C41.8902 52.1161 50.9838 43.0225 50.9838 31.8148V23.6382C50.9838 21.7278 49.43 20.174 47.5196 20.174H39.343C28.1352 20.174 19.0416 29.2675 19.0416 40.4753V62.7125C19.0416 66.7371 22.3021 69.9976 26.3267 69.9976H39.8015C56.4858 69.9976 69.986 56.4719 69.986 39.813V15.2069C69.986 6.80108 63.1849 0 54.8046 0ZM25.5625 40.4753C25.5625 32.8846 31.7268 26.7203 39.3175 26.7203H44.4374V31.8402C44.4374 39.431 38.2477 45.5952 30.6824 45.5952H25.5625V40.4753Z" fill="black"/>
<path d="M11.7056 53.6406L6.53479 60.8747L0.013916 69.9938V62.7597L1.82244 60.2379L6.45838 53.7425L6.53479 53.6406H11.7056Z" fill="black"/>
<path d="M54.8041 0H45.0992C52.5881 1.834 58.7014 7.03033 60.408 8.58413C60.5863 8.73696 60.7646 8.88979 60.9175 9.04263C62.4967 10.6219 63.4647 12.787 63.4647 15.1814V39.7876C63.4647 52.8548 52.8683 63.4512 39.801 63.4512H29.0518C27.1159 63.4512 25.5621 61.8974 25.5621 59.9615V52.1161H30.682C41.8897 52.1161 50.9833 43.0225 50.9833 31.8148V23.6382C50.9833 21.7278 49.4295 20.174 47.5191 20.174H39.3425C28.1348 20.174 19.0412 29.2675 19.0412 40.4753V62.7125C19.0412 66.7371 22.3016 69.9976 26.3262 69.9976H39.801C56.4853 69.9976 69.9856 56.4719 69.9856 39.813V15.2069C69.9856 6.80108 63.1845 0 54.8041 0ZM25.5621 40.4753C25.5621 32.8846 31.7263 26.7203 39.3171 26.7203H44.437V31.8402C44.437 39.431 38.2472 45.5952 30.682 45.5952H25.5621V40.4753Z" fill="black"/>
<path d="M43.1639 63.2199C42.0686 63.3727 40.9479 63.4491 39.8016 63.4491H39.7507C36.8469 63.5765 35.0128 63.4491 35.0128 63.4491H29.0778C27.1419 63.4491 25.5881 61.8953 25.5881 59.9594V52.114H30.7081C41.9158 52.114 51.0094 43.0204 51.0094 31.8127V23.6361C51.0094 21.7257 49.4556 20.1719 47.5452 20.1719H39.3686C28.1608 20.1719 19.0673 29.2654 19.0673 40.4732V62.7104C19.0673 66.735 22.3277 69.9955 26.3523 69.9955H39.8271C50.8311 69.9955 60.4596 64.0859 65.7578 55.2726C58.9822 60.7236 49.7358 62.6085 43.1639 63.2199ZM25.5627 40.4732C25.5627 32.8825 31.7269 26.7182 39.3177 26.7182H44.4376V31.8381C44.4376 39.4289 38.2478 45.5931 30.6826 45.5931H25.5627V40.4732Z" fill="black"/>
</svg>
