<svg width="17867" height="9643" viewBox="0 0 17867 9643" fill="none" xmlns="http://www.w3.org/2000/svg">
<rect y="562.453" width="17860.4" height="8308.25" rx="174" fill="#070505"/>
<rect x="16842.5" y="6229.16" width="1024.53" height="3413.5" rx="150" fill="#070505"/>
<rect y="0.34375" width="16644" height="3352.73" rx="160" fill="#070505"/>
<path d="M16638 391.545C16648.4 524.031 16684.7 567.336 16828.6 563.723L16841.5 647.9C16843.6 649.171 16841.7 649.812 16841.7 649.812L16841.5 647.9C16835.9 644.561 16803 636.875 16638 625.072C16410.2 608.779 16638 391.545 16638 391.545Z" fill="#070505"/>
<path d="M16828.6 563.723C16684.7 567.336 16648.4 524.031 16638 391.545C16638 391.545 16410.2 608.779 16638 625.072C16865.8 641.364 16841.7 649.812 16841.7 649.812L16828.6 563.723Z" stroke="black"/>
<path d="M16846.6 9041.62C16836.2 8909.13 16799.9 8865.82 16656 8869.44L16643.2 8785.26C16641 8783.99 16642.9 8783.35 16642.9 8783.35L16643.2 8785.26C16648.7 8788.6 16681.6 8796.29 16846.6 8808.09C17074.4 8824.38 16846.6 9041.62 16846.6 9041.62Z" fill="#070505"/>
<path d="M16656 8869.44C16799.9 8865.82 16836.2 8909.13 16846.6 9041.62C16846.6 9041.62 17074.4 8824.38 16846.6 8808.09C16618.8 8791.8 16642.9 8783.35 16642.9 8783.35L16656 8869.44Z" stroke="black"/>
</svg>
