<svg width="284" height="285" viewBox="0 0 284 285" fill="none" xmlns="http://www.w3.org/2000/svg">
<path d="M163.973 148.107L158.907 144.484H144.516L162.698 157.5L177.089 167.832V157.5L176.921 157.366L163.973 148.107Z" fill="#E8CC1C" fill-opacity="0.07"/>
<path d="M223.851 144.484H208.152C208.152 144.484 208.152 144.484 208.185 144.484H177.088V157.5H223.818C238.108 157.5 250.856 163.874 259.511 173.904C259.746 174.173 260.014 174.441 260.249 174.709C261.054 175.716 261.825 176.756 262.563 177.829C262.698 177.997 262.832 178.165 262.932 178.332C263.737 179.506 264.475 180.714 265.146 181.989C265.18 182.056 265.247 182.156 265.281 182.224C266.019 183.565 266.656 184.941 267.26 186.35C269.642 191.985 270.983 198.191 270.983 204.699V253.744C270.983 260.486 267.092 266.256 261.456 269.108C259.108 270.282 256.492 271.02 253.707 271.02H204.663C180.476 271.02 160.55 252.804 157.833 229.322C157.799 228.92 157.732 228.551 157.699 228.148C157.565 226.739 157.464 225.297 157.464 223.821V202.418C157.464 200.003 158.672 197.89 160.517 196.648C161.624 195.91 162.965 195.474 164.408 195.474H180.074V205.672C180.074 219.694 187.219 232.039 198.021 239.285C204.462 243.613 212.211 246.129 220.53 246.129H236.834C240.658 246.129 243.744 243.042 243.744 239.218V222.915C243.744 208.96 236.666 196.648 225.898 189.369C219.457 185.008 211.674 182.458 203.288 182.458H158.94C154.881 182.458 151.224 184.136 148.574 186.819C146.025 189.436 144.415 192.992 144.415 196.95V223.821C144.415 225.666 144.515 227.477 144.683 229.289C144.716 229.758 144.784 230.194 144.817 230.664C145.018 232.408 145.253 234.153 145.622 235.864C145.656 236.031 145.723 236.233 145.756 236.4C146.092 237.91 146.461 239.419 146.93 240.895C147.098 241.432 147.232 241.935 147.4 242.472C147.87 243.948 148.407 245.424 149.01 246.867C149.212 247.336 149.413 247.772 149.614 248.242C150.117 249.349 150.654 250.456 151.224 251.563C151.392 251.898 151.526 252.234 151.694 252.536C151.828 252.804 152.029 253.073 152.164 253.341C152.801 254.448 153.472 255.555 154.143 256.628C154.613 257.366 155.116 258.071 155.619 258.775C156.189 259.547 156.726 260.319 157.33 261.057C157.833 261.694 158.336 262.298 158.839 262.902C159.51 263.673 160.215 264.445 160.919 265.183C161.724 266.021 162.529 266.826 163.368 267.632C163.938 268.168 164.542 268.739 165.146 269.242C165.783 269.812 166.454 270.382 167.125 270.919C167.897 271.523 168.668 272.093 169.473 272.663C170.446 273.368 171.453 274.039 172.459 274.676C172.862 274.945 173.264 275.213 173.7 275.481C173.7 275.481 173.667 275.414 173.633 275.414C182.657 280.849 193.224 284.036 204.529 284.036H253.573C261.02 284.036 267.83 281.318 273.097 276.857C279.672 271.288 283.831 263.002 283.831 253.744V204.699C283.831 188.396 277.324 173.636 266.79 162.8C255.854 151.529 240.557 144.518 223.617 144.518L223.851 144.484ZM230.795 222.881V233.079H220.597C205.468 233.079 193.157 220.768 193.157 205.639V195.441H203.355C206.206 195.441 208.923 195.877 211.506 196.682C222.677 200.171 230.795 210.57 230.795 222.881Z" fill="#E8CC1C" fill-opacity="0.07"/>
<path d="M139.551 177.057H126.535V223.787C126.535 238.078 120.162 250.859 110.098 259.513C109.829 259.748 109.595 259.983 109.326 260.218C108.32 261.057 107.246 261.828 106.173 262.566C106.005 262.667 105.871 262.801 105.703 262.902C104.529 263.707 103.288 264.445 102.013 265.149C101.946 265.183 101.879 265.216 101.812 265.283C95.1363 268.906 87.4543 270.986 79.3362 270.986H30.292C23.5493 270.986 17.7794 267.095 14.9279 261.459C13.7538 259.111 13.0158 256.494 13.0158 253.71V204.666C13.0158 180.479 31.2313 160.553 54.7134 157.836C55.116 157.802 55.485 157.735 55.8875 157.701C57.2965 157.567 58.739 157.5 60.215 157.5H81.6173C84.0326 157.5 86.146 158.708 87.3872 160.553C88.1252 161.66 88.5613 163.002 88.5613 164.444V180.11H78.3633C64.3411 180.11 51.9627 187.255 44.7167 198.091C40.4229 204.532 37.9069 212.247 37.9069 220.567V236.87C37.9069 240.694 40.9931 243.78 44.8174 243.78H61.1207C74.9416 243.78 87.1524 236.836 94.4318 226.236C98.927 219.728 101.577 211.845 101.577 203.324V158.976C101.577 154.716 99.7321 150.959 96.8136 148.309C94.2306 145.96 90.8424 144.484 87.0853 144.484H60.215C58.37 144.484 56.5585 144.585 54.747 144.753C54.2773 144.786 53.8412 144.853 53.3716 144.887C51.6272 145.088 49.8828 145.323 48.172 145.692C47.9707 145.726 47.803 145.793 47.6352 145.826C46.1257 146.162 44.6161 146.531 43.1401 146.967C42.6034 147.135 42.1002 147.269 41.5634 147.436C40.0874 147.906 38.6114 148.443 37.1689 149.047C36.6993 149.248 36.2632 149.449 35.7935 149.65C34.6865 150.154 33.5795 150.69 32.4725 151.261C31.8687 151.563 31.2648 151.898 30.6945 152.233C29.5875 152.871 28.4805 153.542 27.407 154.246C26.669 154.716 25.9646 155.219 25.2601 155.722C24.4885 156.293 23.717 156.829 22.979 157.433C22.3416 157.936 21.7378 158.439 21.1339 158.943C20.3624 159.614 19.5908 160.318 18.8528 161.023C18.0142 161.828 17.2091 162.633 16.404 163.505C15.8672 164.075 15.297 164.679 14.7938 165.283C14.2235 165.92 13.6532 166.591 13.1165 167.262C12.5126 168.034 11.9424 168.805 11.3721 169.61C10.6676 170.583 9.99669 171.59 9.35932 172.596C9.09095 172.998 8.82258 173.401 8.55422 173.837C8.55422 173.837 8.62131 173.804 8.62131 173.77C3.18686 182.827 0 193.361 0 204.666V253.71C0 261.358 2.85141 268.302 7.51429 273.636C13.0494 279.976 21.201 284.002 30.292 284.002H79.3362C95.975 284.002 111.004 277.259 121.906 266.357C132.808 255.454 139.551 240.426 139.551 223.787V208.087V176.99V177.057ZM61.1543 230.765H50.9563V220.567C50.9563 205.437 63.2677 193.126 78.3969 193.126H88.5948V203.324C88.5948 206.175 88.1588 208.893 87.3536 211.476C83.8649 222.646 73.4656 230.765 61.1543 230.765Z" fill="#E8CC1C" fill-opacity="0.07"/>
<path d="M135.929 163.941L139.552 158.876V144.484L126.536 162.666L116.204 177.057H126.536L126.67 176.89L135.929 163.941Z" fill="#E8CC1C" fill-opacity="0.07"/>
<path d="M17.6779 121.906C28.5804 132.808 43.609 139.551 60.2478 139.551H75.9473C75.9473 139.551 75.9473 139.551 75.9137 139.551H107.011V126.535H60.2813C45.9907 126.535 33.2097 120.162 24.5549 110.098C24.32 109.829 24.0852 109.595 23.8504 109.326C23.0117 108.32 22.2402 107.246 21.5022 106.173C21.4015 106.005 21.2674 105.871 21.1667 105.703C20.3616 104.496 19.6236 103.288 18.9191 102.013C18.8856 101.946 18.8521 101.879 18.8185 101.845C15.1955 95.1699 13.1157 87.4878 13.1157 79.3697V30.3255C13.1157 23.6163 16.9735 17.8464 22.5757 14.995C24.9239 13.7874 27.574 13.0494 30.3583 13.0494H79.4025C103.589 13.0494 123.515 31.2648 126.233 54.747C126.266 55.1495 126.333 55.5185 126.367 55.9211C126.501 57.33 126.568 58.7725 126.568 60.2485V81.6508C126.568 84.0661 125.36 86.1795 123.515 87.4207C122.408 88.1587 121.067 88.5948 119.624 88.5948H103.958V78.3969C103.958 64.3747 96.8128 51.9962 85.9775 44.7503C79.5367 40.4564 71.8211 37.9405 63.5017 37.9405H47.1984C43.3741 37.9405 40.2879 41.0267 40.2879 44.8509V61.1543C40.2879 75.1094 47.3661 87.4207 58.1344 94.7002C64.5752 99.0612 72.3578 101.611 80.7443 101.611H125.092C129.319 101.611 133.076 99.7992 135.726 96.9142C138.108 94.3312 139.617 90.9095 139.617 87.1188V60.2485C139.617 58.4035 139.517 56.592 139.349 54.7805C139.316 54.3109 139.248 53.8748 139.215 53.4051C139.014 51.6608 138.779 49.9164 138.41 48.2055C138.376 48.0042 138.309 47.8365 138.276 47.6688C137.94 46.1592 137.571 44.6497 137.135 43.1736C136.967 42.6369 136.833 42.1337 136.665 41.597C136.196 40.121 135.659 38.6449 135.055 37.2025C134.854 36.7328 134.653 36.2967 134.451 35.8271C133.948 34.7201 133.411 33.613 132.841 32.506C132.539 31.9022 132.204 31.2984 131.868 30.7281C131.231 29.6211 130.56 28.5141 129.856 27.4406C129.386 26.7026 128.883 25.9981 128.38 25.2936C127.809 24.5221 127.273 23.7505 126.669 23.0125C126.166 22.3751 125.662 21.7713 125.159 21.1675C124.488 20.3959 123.784 19.6244 123.079 18.8864C122.274 18.0477 121.469 17.2426 120.597 16.4375C120.027 15.9008 119.423 15.3305 118.819 14.8273C118.182 14.257 117.511 13.6867 116.84 13.15C116.068 12.5462 115.263 11.9759 114.492 11.3721C113.519 10.6676 112.546 9.99669 111.506 9.35932C111.103 9.09095 110.701 8.82258 110.265 8.55422C110.265 8.55422 110.298 8.62131 110.332 8.62131C101.308 3.18686 90.741 0 79.436 0H30.3919C22.8105 0 15.9 2.81786 10.5662 7.41365C4.09184 12.9823 0.0327759 21.1339 0.0327759 30.292V79.3362C0.0327759 95.9414 6.77551 111.004 17.6779 121.906ZM53.2702 61.1543V50.9563H63.4682C78.5974 50.9563 90.9087 63.2677 90.9087 78.3969V88.5948H80.7108C76.9201 88.5948 73.3307 87.8233 70.0432 86.4479C60.1807 82.2882 53.2702 72.5263 53.2702 61.1543Z" fill="#E8CC1C" fill-opacity="0.07"/>
<path d="M120.095 135.905L125.16 139.528H139.552L121.37 126.512L106.979 116.18V126.512L107.146 126.646L120.095 135.905Z" fill="#E8CC1C" fill-opacity="0.07"/>
<path d="M148.139 120.07L144.516 125.135V139.526L157.532 121.344L167.864 106.953H157.532L157.398 107.121L148.139 120.07Z" fill="#E8CC1C" fill-opacity="0.07"/>
<path d="M276.921 10.8353C271.386 4.22679 263.067 0 253.741 0H204.697C188.092 0 173.029 6.74274 162.127 17.6452C151.225 28.5476 144.482 43.5762 144.482 60.215V75.9145C144.482 75.9145 144.482 75.9145 144.482 75.8809V106.978H157.498V60.2485C157.498 45.9579 163.871 33.1769 173.902 24.5221C174.17 24.2873 174.405 24.0524 174.673 23.8176C175.68 22.979 176.753 22.2074 177.826 21.4694C177.994 21.3688 178.128 21.2346 178.296 21.1004C179.47 20.2953 180.678 19.5573 181.953 18.8864C182.02 18.8528 182.12 18.7857 182.187 18.7522C183.529 18.0142 184.905 17.3768 186.28 16.773C191.916 14.3912 198.122 13.0494 204.63 13.0494H253.674C260.417 13.0494 266.187 16.9407 269.038 22.5764C270.212 24.9246 270.95 27.5412 270.95 30.3255V79.3697C270.95 103.556 252.735 123.483 229.252 126.2C228.85 126.233 228.481 126.3 228.078 126.334C226.669 126.468 225.227 126.569 223.751 126.569H202.349C199.933 126.569 197.82 125.361 196.579 123.516C195.841 122.409 195.405 121.067 195.405 119.625V103.959H205.603C219.725 103.959 232.171 96.6794 239.383 85.7099C243.577 79.3362 246.059 71.7212 246.059 63.5025V47.1991C246.059 43.3749 242.973 40.2887 239.148 40.2887H222.845C208.89 40.2887 196.579 47.3669 189.299 58.1351C184.938 64.5759 182.389 72.3586 182.389 80.7451V125.093C182.389 129.185 184.1 132.875 186.817 135.492C189.433 138.008 192.956 139.585 196.881 139.585H223.751C225.596 139.585 227.407 139.484 229.219 139.316C229.689 139.283 230.125 139.216 230.594 139.182C232.339 138.981 234.083 138.746 235.794 138.377C235.995 138.343 236.163 138.276 236.331 138.243C237.84 137.907 239.35 137.538 240.826 137.102C241.362 136.935 241.866 136.8 242.402 136.633C243.878 136.163 245.354 135.626 246.797 135.022C247.267 134.821 247.703 134.62 248.172 134.419C249.279 133.915 250.386 133.379 251.493 132.808C252.097 132.506 252.701 132.171 253.271 131.836C254.378 131.198 255.485 130.527 256.559 129.823C257.297 129.353 258.001 128.85 258.706 128.347C259.477 127.777 260.249 127.24 260.987 126.636C261.624 126.133 262.228 125.63 262.865 125.126C263.637 124.455 264.409 123.751 265.147 123.047C265.985 122.241 266.79 121.436 267.595 120.564C268.132 119.994 268.702 119.39 269.206 118.786C269.776 118.149 270.346 117.478 270.883 116.807C271.487 116.035 272.057 115.264 272.627 114.459C273.332 113.486 274.003 112.48 274.64 111.473C274.908 111.071 275.177 110.668 275.445 110.232C275.445 110.232 275.378 110.266 275.378 110.299C280.813 101.275 283.999 90.7082 283.999 79.4033V30.3591C283.999 22.9454 281.316 16.1691 276.888 10.9024L276.921 10.8353ZM222.879 53.2374H233.077V63.4354C233.077 78.5646 220.765 90.876 205.636 90.876H195.438V80.678C195.438 77.8266 195.874 75.1094 196.679 72.5263C200.168 61.3555 210.567 53.2374 222.879 53.2374Z" fill="#E8CC1C" fill-opacity="0.07"/>
</svg>
