<?xml version="1.0" encoding="utf-8"?>
<svg xmlns="http://www.w3.org/2000/svg" viewBox="0 0 48 48" width="144" height="144">
  <path d="M13.462891 3 A 1.50015 1.50015 0 0 0 12 4.5L12 17.5C12 20.6 13.726549 23.310529 15.328125 25.3125C16.687125 27.01125 17.670522 27.815614 18.052734 28.146484L18.857422 37L18.5 37 A 1.50015 1.50015 0 0 0 17 38.5L17 41.5C17 43.414955 18.585045 45 20.5 45L27.5 45C29.414955 45 31 43.414955 31 41.5L31 38.5 A 1.50015 1.50015 0 0 0 29.5 37L29.142578 37L29.947266 28.146484C30.329478 27.815614 31.312875 27.01125 32.671875 25.3125C34.273451 23.310529 36 20.6 36 17.5L36 4.5 A 1.50015 1.50015 0 0 0 33.271484 3.640625L27.552734 11.808594L24.261719 6.6894531 A 1.50015 1.50015 0 0 0 22.167969 6.2519531L18.789062 8.5039062L14.652344 3.5390625 A 1.50015 1.50015 0 0 0 13.462891 3 z M 15 8.6445312L17.347656 11.460938 A 1.50015 1.50015 0 0 0 19.332031 11.748047L22.5625 9.59375L26.238281 15.310547 A 1.50015 1.50015 0 0 0 28.728516 15.359375L33 9.2578125L33 17.5C33 19.4 31.726549 21.689471 30.328125 23.4375C28.929701 25.185529 27.539062 26.347656 27.539062 26.347656 A 1.50015 1.50015 0 0 0 27.005859 27.363281L26.130859 37L21.869141 37L20.994141 27.363281 A 1.50015 1.50015 0 0 0 20.460938 26.347656C20.460938 26.347656 19.070299 25.185529 17.671875 23.4375C16.273451 21.689471 15 19.4 15 17.5L15 8.6445312 z M 20 40L20.5 40L27.5 40L28 40L28 41.5C28 41.795045 27.795045 42 27.5 42L20.5 42C20.204955 42 20 41.795045 20 41.5L20 40 z" fill="#000" />
</svg>