<?xml version="1.0" encoding="utf-8"?>
<svg xmlns="http://www.w3.org/2000/svg" viewBox="0 0 30 30" width="480" height="480">
  <path d="M13.988281 2 A 1.0001 1.0001 0 0 0 13.228516 2.3632812L10.623047 5.5273438L9.34375 5.0605469 A 1.0001 1.0001 0 0 0 8.9492188 5.0019531 A 1.0001 1.0001 0 0 0 8.1679688 5.4453125L6.2226562 8.3632812L4.2929688 10.292969 A 1.0001 1.0001 0 0 0 4 11L4 16 A 1.0001 1.0001 0 0 0 4.5527344 16.894531L4.7773438 17.005859L4.6054688 17.080078 A 1.0001 1.0001 0 0 0 4.1679688 17.445312L2.1679688 20.445312 A 1.0001 1.0001 0 0 0 2.5527344 21.894531L4.3144531 22.775391L6.1679688 25.554688 A 1.0001 1.0001 0 0 0 6.6835938 25.949219L9.6835938 26.949219 A 1.0001 1.0001 0 0 0 10.242188 26.970703L13.8125 26.078125L16.445312 27.832031 A 1.0001 1.0001 0 0 0 17.707031 27.707031L21.414062 24L26 24 A 1.0001 1.0001 0 0 0 26.894531 23.447266L27.894531 21.447266 A 1.0001 1.0001 0 0 0 27.949219 20.683594L26.949219 17.683594L26.054688 15L26.925781 12.382812L27.894531 10.447266 A 1.0001 1.0001 0 0 0 27.447266 9.1054688L25.447266 8.1054688 A 1.0001 1.0001 0 0 0 25 8L21.123047 8L19.910156 7.6972656L19.998047 6.0546875 A 1.0001 1.0001 0 0 0 19.447266 5.1054688L17.501953 4.1328125L14.554688 2.1679688 A 1.0001 1.0001 0 0 0 13.988281 2 z M 14.197266 4.3339844L16.445312 5.8320312 A 1.0001 1.0001 0 0 0 16.552734 5.8945312L17.966797 6.6015625L17.875 8.2988281L17.039062 11.224609 A 1.0001 1.0001 0 1 0 18.960938 11.775391L19.5625 9.671875L20.757812 9.9707031 A 1.0001 1.0001 0 0 0 21 10L24.763672 10L25.658203 10.447266L25.105469 11.552734 A 1.0001 1.0001 0 0 0 25.050781 11.683594L24.050781 14.683594 A 1.0001 1.0001 0 0 0 24.050781 15.316406L25.050781 18.316406L25.919922 20.923828L25.382812 22L21.175781 22 A 1.0001 1.0001 0 0 0 20.847656 22L19 22 A 1.0001 1.0001 0 0 0 18.646484 23.939453L16.873047 25.712891L14.554688 24.167969 A 1.0001 1.0001 0 0 0 13.757812 24.029297L10.039062 24.958984L7.6425781 24.160156L5.8320312 21.445312 A 1.0001 1.0001 0 0 0 5.4472656 21.105469L4.4609375 20.611328L5.6679688 18.802734L10.433594 16.759766 A 1.0001 1.0001 0 0 0 10.003906 14.835938 A 1.0001 1.0001 0 0 0 9.6464844 14.919922L7.1855469 15.974609L6 15.382812L6 11.414062L7.7070312 9.7070312 A 1.0001 1.0001 0 0 0 7.8320312 9.5546875L9.3964844 7.2089844L12.185547 8.2265625 A 1.0001 1.0001 0 1 0 12.871094 6.3496094L12.613281 6.2558594L14.197266 4.3339844 z M 18 15C17.74425 15 17.488469 15.097469 17.292969 15.292969L14.292969 18.292969C13.980969 18.604969 13.909187 19.084656 14.117188 19.472656C14.294188 19.801656 14.636 20 15 20C15.065 20 15.131266 19.994469 15.197266 19.980469L20.197266 18.980469C20.558266 18.908469 20.850031 18.642062 20.957031 18.289062C21.063031 17.937062 20.968031 17.553969 20.707031 17.292969L18.707031 15.292969C18.511531 15.097469 18.25575 15 18 15 z" fill="#000" />
</svg>