<?xml version="1.0" encoding="utf-8"?>
<svg xmlns="http://www.w3.org/2000/svg" viewBox="0 0 32 32" width="512" height="512">
  <path d="M5 8L5 10L0 10L0 12C0 14.210938 1.789063 16 4 16L5 16L5 18L12 18L12 19L9 19C7.355469 19 6 20.355469 6 22L6 24L28 24L28 22C28 20.355469 26.644531 19 25 19L22 19L22 18L23 18C27.945313 18 32 13.945313 32 9L32 8 Z M 7 10L29.78125 10C29.273438 13.363281 26.5 16 23 16L7 16 Z M 2 12L5 12L5 14L4 14C2.808594 14 2 13.191406 2 12 Z M 14 18L20 18L20 21L25 21C25.554688 21 26 21.445313 26 22L8 22C8 21.445313 8.445313 21 9 21L14 21Z" fill="#000" />
</svg>