<svg width="5525" height="1053" viewBox="0 0 5525 1053" fill="none" xmlns="http://www.w3.org/2000/svg">
<path d="M867.898 119.43C900.878 119.43 927.613 92.6942 927.613 59.7146C927.613 26.7351 900.878 0 867.898 0C834.919 0 808.184 26.7351 808.184 59.7146C808.184 92.6942 834.919 119.43 867.898 119.43Z" fill="white" fill-opacity="0.43"/>
<path d="M866.747 1050.62C899.726 1050.62 926.461 1023.89 926.461 990.909C926.461 957.929 899.726 931.194 866.747 931.194C833.767 931.194 807.031 957.929 807.031 990.909C807.031 1023.89 833.767 1050.62 866.747 1050.62Z" fill="white" fill-opacity="0.43"/>
<path d="M59.7146 585.319C92.6942 585.319 119.43 558.584 119.43 525.604C119.43 492.625 92.6942 465.89 59.7146 465.89C26.7351 465.89 0 492.625 0 525.604C0 558.584 26.7351 585.319 59.7146 585.319Z" fill="white" fill-opacity="0.43"/>
<path d="M462.336 469.452V581.786C462.336 595.385 469.43 607.21 481.255 614.304L578.809 670.472C590.634 676.975 604.824 676.975 616.057 670.472L713.611 614.304C725.436 607.801 732.53 595.385 732.53 581.786V469.452C732.53 455.853 725.436 444.029 713.611 436.934L616.057 380.766C604.232 374.263 590.042 374.263 578.809 380.766L481.255 436.934C469.43 444.029 462.336 456.445 462.336 469.452Z" fill="white"/>
<path d="M1041.77 251.872L640.915 20.1078C621.404 8.87429 597.163 23.0642 597.163 45.5312V228.814C597.163 251.281 572.923 265.471 553.412 254.237L367.173 145.45C358.305 140.129 347.071 140.129 337.611 145.45L152.554 252.464C143.686 257.785 137.773 267.244 137.773 277.887V740.233C137.773 762.7 162.014 776.889 181.525 765.656L337.611 675.788C357.122 664.555 381.362 678.744 381.362 701.211V915.829C381.362 926.472 386.683 935.932 396.143 941.253L582.974 1048.86C591.843 1054.18 603.076 1054.18 612.536 1048.86L1013.98 817.093C1033.49 805.86 1033.49 778.072 1013.98 766.247L856.124 674.014C836.614 662.781 836.614 634.401 856.124 623.168L1042.95 515.563C1051.82 510.242 1057.74 500.782 1057.74 490.14V277.887C1056.55 266.653 1051.23 257.193 1041.77 251.872ZM775.125 668.102L629.681 752.057C608.988 763.882 582.974 763.882 562.281 752.057L416.836 668.102C396.143 656.277 383.136 633.81 383.136 609.57V441.067C383.136 416.827 396.143 394.951 416.836 383.126L562.281 299.171C582.974 287.346 608.988 287.346 629.681 299.171L775.125 383.126C795.819 394.951 808.826 417.418 808.826 441.067V609.57C808.826 633.81 795.819 656.277 775.125 668.102Z" fill="white"/>
<path d="M462.336 538.019V792.841L527.963 778.651V581.179L462.336 538.019Z" fill="white"/>
<path d="M1807.08 477.191C1807.08 502.119 1801.36 525.005 1789.91 545.847C1778.47 566.28 1760.9 582.831 1737.19 595.5C1713.49 608.168 1684.07 614.503 1648.92 614.503H1583.94V768.979H1479.12V338.653H1648.92C1683.25 338.653 1712.27 344.578 1735.97 356.429C1759.67 368.281 1777.45 384.627 1789.3 405.469C1801.15 426.311 1807.08 450.218 1807.08 477.191ZM1640.95 531.135C1660.98 531.135 1675.89 526.435 1685.7 517.036C1695.51 507.636 1700.41 494.355 1700.41 477.191C1700.41 460.027 1695.51 446.745 1685.7 437.346C1675.89 427.946 1660.98 423.247 1640.95 423.247H1583.94V531.135H1640.95ZM1914.37 391.37C1895.98 391.37 1880.86 386.058 1869 375.433C1857.56 364.398 1851.84 350.913 1851.84 334.975C1851.84 318.628 1857.56 305.142 1869 294.516C1880.86 283.482 1895.98 277.965 1914.37 277.965C1932.35 277.965 1947.06 283.482 1958.5 294.516C1970.35 305.142 1976.28 318.628 1976.28 334.975C1976.28 350.913 1970.35 364.398 1958.5 375.433C1947.06 386.058 1932.35 391.37 1914.37 391.37ZM1966.47 426.924V768.979H1861.65V426.924H1966.47ZM2147.26 315.359V768.979H2042.43V315.359H2147.26ZM2202.38 597.339C2202.38 562.193 2208.92 531.339 2222 504.776C2235.48 478.212 2253.67 457.779 2276.55 443.476C2299.44 429.172 2324.98 422.02 2353.18 422.02C2377.29 422.02 2398.34 426.924 2416.32 436.732C2434.71 446.541 2448.81 459.414 2458.61 475.351V426.924H2563.44V768.979H2458.61V720.552C2448.4 736.49 2434.09 749.363 2415.7 759.171C2397.72 768.979 2376.68 773.883 2352.57 773.883C2324.78 773.883 2299.44 766.731 2276.55 752.428C2253.67 737.716 2235.48 717.078 2222 690.515C2208.92 663.543 2202.38 632.484 2202.38 597.339ZM2458.61 597.952C2458.61 571.797 2451.26 551.159 2436.55 536.039C2422.24 520.918 2404.67 513.357 2383.83 513.357C2362.99 513.357 2345.21 520.918 2330.5 536.039C2316.19 550.751 2309.04 571.184 2309.04 597.339C2309.04 623.493 2316.19 644.335 2330.5 659.865C2345.21 674.985 2362.99 682.546 2383.83 682.546C2404.67 682.546 2422.24 674.985 2436.55 659.865C2451.26 644.744 2458.61 624.106 2458.61 597.952ZM2849.53 423.247C2888.76 423.247 2920.23 436.324 2943.93 462.479C2967.64 488.225 2979.49 523.779 2979.49 569.141V768.979H2875.28V583.24C2875.28 560.354 2869.35 542.577 2857.5 529.909C2845.65 517.24 2829.71 510.905 2809.69 510.905C2789.66 510.905 2773.72 517.24 2761.87 529.909C2750.02 542.577 2744.09 560.354 2744.09 583.24V768.979H2639.27V315.359H2744.09V472.9C2754.72 457.779 2769.23 445.723 2787.62 436.732C2806.01 427.742 2826.65 423.247 2849.53 423.247ZM3275.46 548.911C3290.99 551.364 3305.09 557.698 3317.76 567.915C3330.83 578.131 3341.05 590.8 3348.41 605.921C3356.17 621.041 3360.05 637.184 3360.05 654.348C3360.05 676.007 3354.54 695.623 3343.5 713.196C3332.47 730.36 3316.33 744.05 3295.08 754.267C3274.23 764.075 3249.51 768.979 3220.9 768.979H3061.52V341.717H3214.77C3243.79 341.717 3268.51 346.621 3288.95 356.429C3309.38 365.829 3324.7 378.702 3334.92 395.049C3345.14 411.395 3350.25 429.785 3350.25 450.218C3350.25 475.556 3343.3 496.602 3329.4 513.357C3315.92 529.704 3297.94 541.556 3275.46 548.911ZM3117.31 526.23H3211.1C3237.25 526.23 3257.48 520.1 3271.78 507.84C3286.09 495.58 3293.24 478.621 3293.24 456.962C3293.24 435.302 3286.09 418.342 3271.78 406.083C3257.48 393.822 3236.84 387.692 3209.87 387.692H3117.31V526.23ZM3216 723.004C3243.79 723.004 3265.45 716.465 3280.98 703.388C3296.51 690.31 3304.27 672.125 3304.27 648.831C3304.27 625.128 3296.1 606.534 3279.75 593.048C3263.4 579.153 3241.54 572.206 3214.16 572.206H3117.31V723.004H3216ZM3743.96 588.144C3743.96 598.769 3743.35 610.007 3742.13 621.859H3473.63C3475.68 654.961 3486.91 680.911 3507.35 699.71C3528.19 718.1 3553.32 727.295 3582.75 727.295C3606.86 727.295 3626.88 721.778 3642.82 710.744C3659.17 699.301 3670.61 684.18 3677.15 665.382H3737.22C3728.23 697.666 3710.25 724.025 3683.28 744.459C3656.31 764.483 3622.8 774.496 3582.75 774.496C3550.87 774.496 3522.26 767.344 3496.93 753.041C3472 738.737 3452.38 718.508 3438.08 692.354C3423.77 665.79 3416.62 635.14 3416.62 600.404C3416.62 565.667 3423.57 535.221 3437.46 509.067C3451.36 482.912 3470.77 462.887 3495.7 448.993C3521.04 434.689 3550.05 427.537 3582.75 427.537C3614.62 427.537 3642.82 434.485 3667.34 448.38C3691.86 462.274 3710.66 481.482 3723.74 506.002C3737.22 530.113 3743.96 557.494 3743.96 588.144ZM3686.34 576.497C3686.34 555.246 3681.64 537.06 3672.24 521.939C3662.84 506.41 3649.97 494.763 3633.62 486.999C3617.69 478.825 3599.91 474.739 3580.29 474.739C3552.1 474.739 3527.98 483.729 3507.96 501.711C3488.34 519.692 3477.11 544.621 3474.24 576.497H3686.34ZM3873.38 487.612C3883.19 468.404 3897.08 453.488 3915.06 442.863C3933.45 432.237 3955.73 426.924 3981.88 426.924V484.547H3967.17C3904.64 484.547 3873.38 518.466 3873.38 586.305V768.979H3817.6V433.054H3873.38V487.612ZM4233.85 768.979L4102.06 620.633V768.979H4046.27V315.359H4102.06V582.014L4231.4 433.054H4309.25L4151.1 600.404L4309.86 768.979H4233.85ZM4340.91 599.791C4340.91 565.463 4347.86 535.426 4361.75 509.68C4375.65 483.525 4394.65 463.296 4418.76 448.993C4443.28 434.689 4470.46 427.537 4500.29 427.537C4529.72 427.537 4555.26 433.872 4576.92 446.541C4598.58 459.209 4614.72 475.147 4625.34 494.355V433.054H4681.74V768.979H4625.34V706.453C4614.31 726.069 4597.76 742.415 4575.69 755.493C4554.03 768.161 4528.69 774.496 4499.68 774.496C4469.85 774.496 4442.87 767.14 4418.76 752.428C4394.65 737.716 4375.65 717.078 4361.75 690.515C4347.86 663.951 4340.91 633.71 4340.91 599.791ZM4625.34 600.404C4625.34 575.066 4620.24 552.998 4610.02 534.2C4599.8 515.401 4585.91 501.098 4568.33 491.29C4551.17 481.073 4532.17 475.965 4511.33 475.965C4490.48 475.965 4471.48 480.869 4454.32 490.676C4437.15 500.485 4423.46 514.788 4413.25 533.587C4403.03 552.385 4397.92 574.453 4397.92 599.791C4397.92 625.537 4403.03 648.013 4413.25 667.221C4423.46 686.019 4437.15 700.527 4454.32 710.744C4471.48 720.552 4490.48 725.456 4511.33 725.456C4532.17 725.456 4551.17 720.552 4568.33 710.744C4585.91 700.527 4599.8 686.019 4610.02 667.221C4620.24 648.013 4625.34 625.741 4625.34 600.404ZM4942.74 426.924C4968.08 426.924 4990.97 432.442 5011.4 443.476C5031.83 454.101 5047.77 470.243 5059.21 491.903C5071.07 513.562 5076.99 539.921 5076.99 570.98V768.979H5021.82V578.949C5021.82 545.438 5013.44 519.896 4996.69 502.323C4979.93 484.342 4957.05 475.351 4928.03 475.351C4898.61 475.351 4875.11 484.546 4857.54 502.937C4840.37 521.327 4831.79 548.094 4831.79 583.24V768.979H4776.01V315.359H4831.79V480.868C4842.82 463.704 4857.95 450.423 4877.15 441.023C4896.77 431.624 4918.63 426.924 4942.74 426.924ZM5185.89 772.657C5175.26 772.657 5166.27 768.979 5158.92 761.623C5151.56 754.267 5147.88 745.276 5147.88 734.651C5147.88 724.025 5151.56 715.035 5158.92 707.679C5166.27 700.323 5175.26 696.645 5185.89 696.645C5196.11 696.645 5204.69 700.323 5211.64 707.679C5218.99 715.035 5222.67 724.025 5222.67 734.651C5222.67 745.276 5218.99 754.267 5211.64 761.623C5204.69 768.979 5196.11 772.657 5185.89 772.657Z" fill="white"/>
</svg>
