<svg width="37" height="38" viewBox="0 0 37 38" fill="none" xmlns="http://www.w3.org/2000/svg">
<path d="M28.9779 0H15.9598C7.13272 0 -0.00976562 7.15596 -0.00976562 15.9695V28.3813H3.44019V15.9695C3.44019 9.05613 9.04637 3.44996 15.9598 3.44996H28.9779C31.5115 3.44996 33.5599 5.49837 33.5599 8.03193V21.0501C33.5599 27.9635 27.9537 33.5697 21.0404 33.5697H15.3533C14.3291 33.5697 13.5071 32.7476 13.5071 31.7234V27.5727H16.2158C22.1454 27.5727 26.9565 22.7616 26.9565 16.832V12.5061C26.9565 11.4954 26.1344 10.6733 25.1237 10.6733H20.7978C14.8682 10.6733 10.0571 15.4844 10.0571 21.414V33.1789C10.0571 35.3081 11.7821 37.0331 13.9113 37.0331H21.0404C29.8674 37.0331 37.0099 29.8772 37.0099 21.0636V8.04541C37.0099 3.5982 33.4117 0 28.9779 0ZM13.5071 21.414C13.5071 17.398 16.7683 14.1367 20.7843 14.1367H23.4931V16.8455C23.4931 20.8614 20.2183 24.1227 16.2158 24.1227H13.5071V21.414Z" fill="black"/>
<path d="M6.17589 28.375L3.44019 32.2023L-0.00976562 37.0268V33.1995L0.947055 31.8654L3.39976 28.4289L3.44019 28.375H6.17589Z" fill="black"/>
</svg>
