<?xml version="1.0" encoding="utf-8"?>
<!-- Generator: Adobe Illustrator 26.2.1, SVG Export Plug-In . SVG Version: 6.00 Build 0)  -->
<svg version="1.1" id="Layer_1" xmlns="http://www.w3.org/2000/svg" xmlns:xlink="http://www.w3.org/1999/xlink" x="0px" y="0px"
	 viewBox="0 0 586 587" style="enable-background:new 0 0 586 587;" xml:space="preserve">
<style type="text/css">
	.st0{fill:#1E1E1E;}
</style>
<text x="50%" y="50%" dominant-baseline="middle" text-anchor="middle" font-size="20">A</text>

<path class="st0" d="M458.9,0H252.8C113.1,0,0,113.3,0,252.8v196.5h54.6V252.8c0-109.4,88.7-198.2,198.2-198.2h206.1
	c40.1,0,72.5,32.4,72.5,72.5v206.1c0,109.4-88.7,198.2-198.2,198.2h-90c-16.2,0-29.2-13-29.2-29.2v-65.7h42.9
	c93.9,0,170-76.2,170-170V198c0-16-13-29-29-29h-68.5c-93.9,0-170,76.2-170,170v186.2c0,33.7,27.3,61,61,61h112.8
	c139.7,0,252.8-113.3,252.8-252.8V127.4C586,57,529,0,458.9,0z"/>
<path class="st0" d="M97.9,449.2l-43.3,60.6L0,586.2v-60.6l15.1-21.1L54,450.1l0.6-0.9H97.9z"/>
</svg>
