<svg width="281" height="281" viewBox="0 0 281 281" fill="none" xmlns="http://www.w3.org/2000/svg">
<path d="M213.401 77.9823C213.098 80.9063 211.527 83.5163 209.08 85.1407L172.67 109.237C171.869 109.768 170.926 108.815 171.457 108.024L195.553 71.6144C197.373 68.8853 200.416 67.25 203.708 67.25C206.307 67.25 208.744 68.2679 210.585 70.109C212.664 72.1883 213.693 75.0582 213.401 77.9823Z" fill="black" fill-opacity="0.05"/>
<path d="M210.888 210.584C209.047 212.425 206.599 213.443 204.011 213.443C200.719 213.443 197.665 211.808 195.856 209.068L171.76 172.68C171.229 171.879 172.182 170.936 172.973 171.467L209.361 195.563C211.809 197.188 213.39 199.798 213.682 202.722C213.974 205.646 212.956 208.516 210.877 210.595L210.888 210.584Z" fill="black" fill-opacity="0.05"/>
<path d="M108.308 171.763C109.109 171.232 110.051 172.185 109.521 172.976L85.4246 209.364C83.616 212.104 80.5728 213.739 77.2697 213.739C74.6814 213.739 72.2448 212.721 70.3929 210.88C68.3135 208.801 67.2955 205.931 67.5879 203.007C67.8803 200.072 69.4615 197.473 71.909 195.848L108.297 171.752L108.308 171.763Z" fill="black" fill-opacity="0.05"/>
<path d="M109.241 108.305C109.771 109.107 108.818 110.049 108.028 109.518L71.6396 85.4221C69.1812 83.7976 67.6109 81.1876 67.3185 78.2636C67.0153 75.3396 68.0441 72.4696 70.1234 70.3903C71.9645 68.5493 74.412 67.5312 77.0003 67.5312C80.2926 67.5312 83.3358 69.1666 85.1552 71.9065L109.251 108.295L109.241 108.305Z" fill="black" fill-opacity="0.05"/>
<path d="M140.495 119.268C132.189 119.268 124.922 113.68 122.789 105.655L106.479 44.2071C100.555 21.8761 117.384 0 140.484 0C163.584 0 180.425 21.887 174.49 44.2071L158.18 105.655C156.047 113.68 148.78 119.268 140.473 119.268H140.495Z" fill="black" fill-opacity="0.05"/>
<path d="M161.732 140.501C161.732 132.195 167.32 124.928 175.345 122.795L236.793 106.485C259.124 100.561 281 117.391 281 140.49C281 163.59 259.113 180.431 236.793 174.496L175.345 158.186C167.32 156.053 161.732 148.786 161.732 140.48V140.501Z" fill="black" fill-opacity="0.05"/>
<path d="M140.494 161.727C148.801 161.727 156.068 167.315 158.201 175.34L174.511 236.788C180.435 259.119 163.605 280.995 140.505 280.995C117.405 280.995 100.565 259.108 106.5 236.788L122.809 175.34C124.943 167.315 132.21 161.727 140.516 161.727H140.494Z" fill="black" fill-opacity="0.05"/>
<path d="M119.268 140.491C119.268 148.797 113.68 156.064 105.655 158.197L44.2071 174.507C21.8761 180.431 0 163.601 0 140.502C0 117.402 21.887 100.561 44.2071 106.496L105.655 122.806C113.68 124.939 119.268 132.206 119.268 140.512V140.491Z" fill="black" fill-opacity="0.05"/>
</svg>
