<svg width="212" height="212" viewBox="0 0 212 212" fill="none" xmlns="http://www.w3.org/2000/svg">
<rect width="212" height="212" fill="#F5F5F5"/>
<mask id="path-1-inside-1_265_2" fill="white">
<path d="M160.598 59.2173C160.37 61.4179 159.188 63.382 157.346 64.6046L129.945 82.7385C129.342 83.1379 128.633 82.4207 129.033 81.8257L147.167 54.4251C148.536 52.3713 150.826 51.1406 153.304 51.1406C155.26 51.1406 157.093 51.9067 158.479 53.2922C160.044 54.857 160.818 57.0168 160.598 59.2173Z"/>
</mask>
<path d="M160.598 59.2173C160.37 61.4179 159.188 63.382 157.346 64.6046L129.945 82.7385C129.342 83.1379 128.633 82.4207 129.033 81.8257L147.167 54.4251C148.536 52.3713 150.826 51.1406 153.304 51.1406C155.26 51.1406 157.093 51.9067 158.479 53.2922C160.044 54.857 160.818 57.0168 160.598 59.2173Z" stroke="black" stroke-width="24" mask="url(#path-1-inside-1_265_2)"/>
<mask id="path-2-inside-2_265_2" fill="white">
<path d="M158.707 159.008C157.321 160.393 155.479 161.159 153.532 161.159C151.054 161.159 148.756 159.929 147.395 157.867L129.261 130.482C128.861 129.879 129.578 129.17 130.173 129.569L157.558 147.703C159.4 148.926 160.59 150.89 160.81 153.091C161.03 155.291 160.264 157.451 158.699 159.016L158.707 159.008Z"/>
</mask>
<path d="M158.707 159.008C157.321 160.393 155.479 161.159 153.532 161.159C151.054 161.159 148.756 159.929 147.395 157.867L129.261 130.482C128.861 129.879 129.578 129.17 130.173 129.569L157.558 147.703C159.4 148.926 160.59 150.89 160.81 153.091C161.03 155.291 160.264 157.451 158.699 159.016L158.707 159.008Z" stroke="black" stroke-width="24" mask="url(#path-2-inside-2_265_2)"/>
<mask id="path-3-inside-3_265_2" fill="white">
<path d="M81.5086 129.795C82.1117 129.396 82.8208 130.113 82.4214 130.708L64.2875 158.092C62.9264 160.154 60.6362 161.385 58.1504 161.385C56.2026 161.385 54.3688 160.619 52.9751 159.233C51.4103 157.669 50.6442 155.509 50.8642 153.308C51.0843 151.1 52.2742 149.144 54.1161 147.921L81.5005 129.787L81.5086 129.795Z"/>
</mask>
<path d="M81.5086 129.795C82.1117 129.396 82.8208 130.113 82.4214 130.708L64.2875 158.092C62.9264 160.154 60.6362 161.385 58.1504 161.385C56.2026 161.385 54.3688 160.619 52.9751 159.233C51.4103 157.669 50.6442 155.509 50.8642 153.308C51.0843 151.1 52.2742 149.144 54.1161 147.921L81.5005 129.787L81.5086 129.795Z" stroke="black" stroke-width="24" mask="url(#path-3-inside-3_265_2)"/>
<mask id="path-4-inside-4_265_2" fill="white">
<path d="M82.2104 82.0367C82.6098 82.6398 81.8925 83.3489 81.2976 82.9495L53.9132 64.8155C52.0632 63.593 50.8814 61.6289 50.6613 59.4283C50.4331 57.2278 51.2074 55.068 52.7722 53.5032C54.1578 52.1177 55.9997 51.3516 57.9475 51.3516C60.4252 51.3516 62.7154 52.5823 64.0846 54.6442L82.2186 82.0285L82.2104 82.0367Z"/>
</mask>
<path d="M82.2104 82.0367C82.6098 82.6398 81.8925 83.3489 81.2976 82.9495L53.9132 64.8155C52.0632 63.593 50.8814 61.6289 50.6613 59.4283C50.4331 57.2278 51.2074 55.068 52.7722 53.5032C54.1578 52.1177 55.9997 51.3516 57.9475 51.3516C60.4252 51.3516 62.7154 52.5823 64.0846 54.6442L82.2186 82.0285L82.2104 82.0367Z" stroke="black" stroke-width="24" mask="url(#path-4-inside-4_265_2)"/>
<mask id="path-5-inside-5_265_2" fill="white">
<path d="M105.732 90.2883C99.4805 90.2883 94.0118 86.0828 92.4062 80.0436L80.1322 33.8C75.6741 16.9945 88.3393 0.53125 105.723 0.53125C123.108 0.53125 135.781 17.0026 131.315 33.8L119.041 80.0436C117.435 86.0828 111.966 90.2883 105.715 90.2883H105.732Z"/>
</mask>
<path d="M105.732 90.2883C99.4805 90.2883 94.0118 86.0828 92.4062 80.0436L80.1322 33.8C75.6741 16.9945 88.3393 0.53125 105.723 0.53125C123.108 0.53125 135.781 17.0026 131.315 33.8L119.041 80.0436C117.435 86.0828 111.966 90.2883 105.715 90.2883H105.732Z" stroke="black" stroke-width="24" mask="url(#path-5-inside-5_265_2)"/>
<mask id="path-6-inside-6_265_2" fill="white">
<path d="M121.713 106.265C121.713 100.014 125.919 94.5453 131.958 92.9397L178.202 80.6656C195.007 76.2075 211.47 88.8728 211.47 106.257C211.47 123.641 194.999 136.314 178.202 131.848L131.958 119.574C125.919 117.969 121.713 112.5 121.713 106.249V106.265Z"/>
</mask>
<path d="M121.713 106.265C121.713 100.014 125.919 94.5453 131.958 92.9397L178.202 80.6656C195.007 76.2075 211.47 88.8728 211.47 106.257C211.47 123.641 194.999 136.314 178.202 131.848L131.958 119.574C125.919 117.969 121.713 112.5 121.713 106.249V106.265Z" stroke="black" stroke-width="24" mask="url(#path-6-inside-6_265_2)"/>
<mask id="path-7-inside-7_265_2" fill="white">
<path d="M105.731 122.242C111.982 122.242 117.451 126.448 119.056 132.487L131.331 178.731C135.789 195.536 123.123 211.999 105.739 211.999C88.355 211.999 75.6816 195.528 80.1479 178.731L92.4219 132.487C94.0275 126.448 99.4962 122.242 105.747 122.242H105.731Z"/>
</mask>
<path d="M105.731 122.242C111.982 122.242 117.451 126.448 119.056 132.487L131.331 178.731C135.789 195.536 123.123 211.999 105.739 211.999C88.355 211.999 75.6816 195.528 80.1479 178.731L92.4219 132.487C94.0275 126.448 99.4962 122.242 105.747 122.242H105.731Z" stroke="black" stroke-width="24" mask="url(#path-7-inside-7_265_2)"/>
<mask id="path-8-inside-8_265_2" fill="white">
<path d="M89.757 106.259C89.757 112.51 85.5516 117.979 79.5124 119.585L33.2687 131.859C16.4632 136.317 0 123.651 0 106.267C0 88.8831 16.4714 76.2097 33.2687 80.6759L79.5124 92.95C85.5516 94.5556 89.757 100.024 89.757 106.275V106.259Z"/>
</mask>
<path d="M89.757 106.259C89.757 112.51 85.5516 117.979 79.5124 119.585L33.2687 131.859C16.4632 136.317 0 123.651 0 106.267C0 88.8831 16.4714 76.2097 33.2687 80.6759L79.5124 92.95C85.5516 94.5556 89.757 100.024 89.757 106.275V106.259Z" stroke="black" stroke-width="24" mask="url(#path-8-inside-8_265_2)"/>
</svg>
