<svg width="254" height="162" viewBox="0 0 254 162" fill="none" xmlns="http://www.w3.org/2000/svg">
<mask id="path-1-inside-1_832_2" fill="white">
<path fill-rule="evenodd" clip-rule="evenodd" d="M219 81H254C254 36.2649 217.735 0 173 0C128.265 0 92 36.2649 92 81H127C127 55.5949 147.595 35 173 35C198.405 35 219 55.5949 219 81Z"/>
</mask>
<path d="M219 81H207V93H219V81ZM254 81V93H266V81H254ZM92 81H80V93H92V81ZM127 81V93H139V81H127ZM219 93H254V69H219V93ZM266 81C266 29.6375 224.362 -12 173 -12V12C211.108 12 242 42.8924 242 81H266ZM173 -12C121.638 -12 80 29.6375 80 81H104C104 42.8924 134.892 12 173 12V-12ZM92 93H127V69H92V93ZM173 23C140.967 23 115 48.9675 115 81H139C139 62.2223 154.222 47 173 47V23ZM231 81C231 48.9675 205.033 23 173 23V47C191.778 47 207 62.2223 207 81H231Z" fill="black" mask="url(#path-1-inside-1_832_2)"/>
<mask id="path-3-inside-2_832_2" fill="white">
<path fill-rule="evenodd" clip-rule="evenodd" d="M127 81H162C162 125.735 125.735 162 81 162C36.2649 162 0 125.735 0 81H35C35 106.405 55.5949 127 81 127C106.405 127 127 106.405 127 81Z"/>
</mask>
<path d="M127 81H115V69H127V81ZM162 81V69H174V81H162ZM0 81H-12V69H0V81ZM35 81V69H47V81H35ZM127 69H162V93H127V69ZM174 81C174 132.362 132.362 174 81 174V150C119.108 150 150 119.108 150 81H174ZM81 174C29.6375 174 -12 132.362 -12 81H12C12 119.108 42.8924 150 81 150V174ZM0 69H35V93H0V69ZM81 139C48.9675 139 23 113.033 23 81H47C47 99.7777 62.2223 115 81 115V139ZM139 81C139 113.033 113.033 139 81 139V115C99.7777 115 115 99.7777 115 81H139Z" fill="black" mask="url(#path-3-inside-2_832_2)"/>
</svg>
