<svg width="192" height="196" viewBox="0 0 192 196" fill="none" xmlns="http://www.w3.org/2000/svg">
<path d="M96.342 191.505C121.973 191.505 142.751 170.727 142.751 145.096C142.751 119.465 121.973 98.6875 96.342 98.6875C70.7111 98.6875 49.9331 119.465 49.9331 145.096C49.9331 170.727 70.7111 191.505 96.342 191.505Z" stroke="black" stroke-width="8"/>
<mask id="path-2-inside-1_832_30" fill="white">
<path fill-rule="evenodd" clip-rule="evenodd" d="M191.814 100.409C191.814 121.503 176.414 139 156.243 142.269C155.978 114.554 135.611 91.647 109.021 87.4252C114.505 70.3544 130.512 58 149.405 58C172.827 58 191.814 76.9871 191.814 100.409ZM107 100.963C126.835 104.181 142.055 121.157 142.553 141.781C142.058 121.155 126.836 104.176 107 100.958C107 100.96 107 100.962 107 100.963Z"/>
</mask>
<path d="M156.243 142.269L148.243 142.346L148.332 151.656L157.523 150.166L156.243 142.269ZM109.021 87.4252L101.404 84.9783L98.5501 93.8629L107.766 95.3262L109.021 87.4252ZM107 100.963L99.0007 101.066L99.0868 107.784L105.719 108.86L107 100.963ZM142.553 141.781L134.555 141.974L150.551 141.589L142.553 141.781ZM107 100.958L108.281 93.0615L98.8797 91.5362L99.0006 101.06L107 100.958ZM157.523 150.166C181.505 146.279 199.814 125.49 199.814 100.409H183.814C183.814 117.516 171.322 131.721 154.963 134.373L157.523 150.166ZM107.766 95.3262C130.557 98.9447 148.016 118.593 148.243 142.346L164.243 142.193C163.939 110.515 140.665 84.3492 110.275 79.5241L107.766 95.3262ZM149.405 50C126.936 50 107.92 64.6952 101.404 84.9783L116.638 89.872C121.09 76.0135 134.089 66 149.405 66V50ZM199.814 100.409C199.814 72.5688 177.245 50 149.405 50V66C168.409 66 183.814 81.4054 183.814 100.409H199.814ZM105.719 108.86C121.804 111.47 134.152 125.252 134.555 141.974L150.551 141.588C149.959 117.062 131.865 96.8928 108.281 93.0666L105.719 108.86ZM150.551 141.589C149.962 117.06 131.867 96.888 108.281 93.0615L105.719 108.855C121.806 111.465 134.154 125.249 134.555 141.973L150.551 141.589ZM99.0006 101.06C99.0007 101.062 99.0007 101.064 99.0007 101.066L114.999 100.861C114.999 100.86 114.999 100.858 114.999 100.857L99.0006 101.06Z" fill="black" mask="url(#path-2-inside-1_832_30)"/>
<mask id="path-4-inside-2_832_30" fill="white">
<path fill-rule="evenodd" clip-rule="evenodd" d="M36.2542 142.374C36.4701 114.84 56.5255 92.0312 82.8294 87.5377C77.3797 70.4087 61.3434 58 42.4089 58C18.9871 58 0 76.9871 0 100.409C0 121.74 15.7492 139.393 36.2542 142.374ZM49.9383 142.151C49.9382 142.151 49.9381 142.151 49.938 142.152C50.0577 134.445 52.2333 127.237 55.9404 121.052C52.2334 127.237 50.058 134.445 49.9383 142.151Z"/>
</mask>
<path d="M82.8294 87.5377L84.1765 95.4234L93.2407 93.875L90.4528 85.1122L82.8294 87.5377ZM36.2542 142.374L35.1032 150.291L44.182 151.611L44.254 142.437L36.2542 142.374ZM49.9383 142.151L51.4126 150.014L57.8359 148.81L57.9374 142.276L49.9383 142.151ZM49.938 142.152L41.9389 142.027L41.7868 151.819L51.4123 150.014L49.938 142.152ZM55.9404 121.052L62.8023 125.164L49.0787 116.939L55.9404 121.052ZM81.4822 79.6519C51.4205 84.7874 28.5013 110.841 28.2544 142.312L44.254 142.437C44.439 118.84 61.6306 99.2749 84.1765 95.4234L81.4822 79.6519ZM42.4089 66C57.7595 66 70.7818 76.0577 75.2059 89.9631L90.4528 85.1122C83.9775 64.7597 64.9273 50 42.4089 50V66ZM8 100.409C8 81.4054 23.4054 66 42.4089 66V50C14.5688 50 -8 72.5688 -8 100.409H8ZM37.4052 134.458C20.7756 132.04 8 117.709 8 100.409H-8C-8 125.771 10.7229 146.747 35.1032 150.291L37.4052 134.458ZM48.464 134.288C48.4997 134.282 48.5317 134.276 48.559 134.271C48.5863 134.266 48.6097 134.263 48.6281 134.259C48.6463 134.256 48.661 134.254 48.67 134.253C48.6746 134.252 48.6783 134.251 48.6805 134.251C48.6825 134.251 48.6843 134.25 48.684 134.25C48.684 134.25 48.684 134.25 48.684 134.25C48.684 134.25 48.684 134.25 48.684 134.25C48.684 134.25 48.684 134.25 48.6839 134.25C48.6839 134.25 48.6838 134.25 48.6838 134.25C48.6836 134.25 48.6834 134.25 48.6831 134.251C48.6825 134.251 48.6816 134.251 48.6805 134.251C48.6782 134.251 48.6745 134.252 48.6699 134.253C48.6609 134.254 48.6461 134.256 48.6279 134.259C48.6095 134.263 48.586 134.267 48.5588 134.271C48.5314 134.276 48.4994 134.282 48.4636 134.289L51.4123 150.014C51.3765 150.021 51.3446 150.027 51.3172 150.032C51.29 150.036 51.2665 150.04 51.2482 150.043C51.23 150.046 51.2153 150.049 51.2063 150.05C51.2017 150.051 51.198 150.052 51.1958 150.052C51.1937 150.052 51.192 150.053 51.1923 150.053C51.1923 150.053 51.1923 150.053 51.1923 150.053C51.1923 150.053 51.1923 150.053 51.1923 150.053C51.1923 150.053 51.1923 150.053 51.1923 150.053C51.1924 150.053 51.1924 150.053 51.1925 150.053C51.1926 150.052 51.1929 150.052 51.1932 150.052C51.1937 150.052 51.1947 150.052 51.1958 150.052C51.1981 150.052 51.2018 150.051 51.2064 150.05C51.2154 150.049 51.2301 150.046 51.2484 150.043C51.2667 150.04 51.2902 150.036 51.3175 150.032C51.3449 150.027 51.3769 150.021 51.4126 150.014L48.464 134.288ZM57.937 142.276C58.0343 136.013 59.7983 130.176 62.8022 125.165L49.0787 116.939C44.6683 124.297 42.0811 132.876 41.9389 142.027L57.937 142.276ZM57.9374 142.276C58.0346 136.013 59.7984 130.176 62.8023 125.164L49.0786 116.939C44.6684 124.297 42.0813 132.876 41.9393 142.027L57.9374 142.276Z" fill="black" mask="url(#path-4-inside-2_832_30)"/>
<path d="M57.9839 48.2883L57.1627 52.2031L60.2391 52.8484L61.5935 50.0119L57.9839 48.2883ZM133.395 48.4221L129.78 50.1328L131.145 53.0182L134.261 52.3273L133.395 48.4221ZM155.157 47.9055L154.48 51.8477L160.896 52.9503L158.98 46.7285L155.157 47.9055ZM36.1187 48.0347L32.2932 46.8661L30.3677 53.1693L36.8479 51.9677L36.1187 48.0347ZM95.6578 20.5204C77.4438 20.5204 61.7252 31.1702 54.3743 46.5647L61.5935 50.0119C67.6664 37.2937 80.6415 28.5204 95.6578 28.5204V20.5204ZM137.011 46.7114C129.69 31.2378 113.929 20.5204 95.6578 20.5204V28.5204C110.722 28.5204 123.731 37.3495 129.78 50.1328L137.011 46.7114ZM145.591 43.0929C141.109 43.0929 136.737 43.5841 132.53 44.5169L134.261 52.3273C137.904 51.5197 141.695 51.0929 145.591 51.0929V43.0929ZM155.835 43.9633C152.503 43.3908 149.08 43.0929 145.591 43.0929V51.0929C148.624 51.0929 151.594 51.3518 154.48 51.8477L155.835 43.9633ZM95.6578 8C121.847 8 144.008 25.2873 151.334 49.0825L158.98 46.7285C150.65 19.6721 125.457 0 95.6578 0V8ZM39.9441 49.2033C47.2321 25.3459 69.4245 8 95.6578 8V0C65.8085 0 40.58 19.7388 32.2932 46.8661L39.9441 49.2033ZM46.4088 43.0929C42.648 43.0929 38.9645 43.4389 35.3894 44.1018L36.8479 51.9677C39.9443 51.3936 43.1396 51.0929 46.4088 51.0929V43.0929ZM58.8051 44.3735C54.8021 43.5338 50.6552 43.0929 46.4088 43.0929V51.0929C50.1001 51.0929 53.6967 51.476 57.1627 52.2031L58.8051 44.3735Z" fill="black"/>
</svg>
