<svg width="286" height="286" viewBox="0 0 286 286" fill="none" xmlns="http://www.w3.org/2000/svg">
<path d="M208.758 219.349C208.758 255.634 179.343 285.05 143.058 285.05C106.772 285.05 77.3571 255.634 77.3571 219.349C77.3571 183.064 106.772 153.648 143.058 153.648C179.343 153.648 208.758 183.064 208.758 219.349Z" fill="#ACD081" fill-opacity="0.05"/>
<path fill-rule="evenodd" clip-rule="evenodd" d="M285.055 153.646C285.055 186.325 261.196 213.432 229.948 218.497C229.536 175.56 197.984 140.072 156.791 133.531C165.286 107.085 190.085 87.9453 219.355 87.9453C255.64 87.9453 285.055 117.36 285.055 153.646ZM153.66 154.498C180.76 158.895 202.301 179.87 207.538 206.68C202.302 179.869 180.761 158.894 153.66 154.497C153.66 154.497 153.66 154.498 153.66 154.498Z" fill="#ACD081" fill-opacity="0.05"/>
<path fill-rule="evenodd" clip-rule="evenodd" d="M56.166 218.66C56.4958 176 87.5659 140.66 128.318 133.696C119.872 107.165 95.0308 87.9453 65.7006 87.9453C29.4151 87.9453 0 117.36 0 153.646C0 186.693 24.3992 214.041 56.166 218.66ZM131.393 154.68C131.393 154.679 131.393 154.678 131.393 154.677C101 160.123 77.8551 186.471 77.365 218.314C77.8563 186.472 101.001 160.126 131.393 154.68Z" fill="#ACD081" fill-opacity="0.05"/>
<path fill-rule="evenodd" clip-rule="evenodd" d="M83.6333 68.6121C94.0315 46.8359 116.258 31.7906 141.998 31.7906C167.82 31.7906 190.106 46.9314 200.462 68.8195C206.543 67.4713 212.865 66.7602 219.355 66.7602C224.408 66.7602 229.36 67.1915 234.176 68.0191C222.049 28.6291 185.367 0 141.998 0C98.5563 0 61.8237 28.7261 49.7593 68.2193C54.9272 67.2611 60.2556 66.7602 65.7009 66.7602C71.8496 66.7602 77.8478 67.3985 83.6333 68.6121Z" fill="#ACD081" fill-opacity="0.05"/>
</svg>
