<svg width="192" height="202" viewBox="0 0 192 202" fill="none" xmlns="http://www.w3.org/2000/svg">
<path d="M96.342 195.505C123.078 195.505 144.751 173.832 144.751 147.096C144.751 120.361 123.078 98.6875 96.342 98.6875C69.6065 98.6875 47.9331 120.361 47.9331 147.096C47.9331 173.832 69.6065 195.505 96.342 195.505Z" stroke="black" stroke-width="12"/>
<mask id="path-2-inside-1_832_30" fill="white">
<path fill-rule="evenodd" clip-rule="evenodd" d="M191.814 102.409C191.814 123.503 176.414 141 156.243 144.269C155.978 116.554 135.611 93.647 109.021 89.4252C114.505 72.3544 130.512 60 149.405 60C172.827 60 191.814 78.9871 191.814 102.409ZM107 102.963C126.835 106.181 142.055 123.157 142.553 143.781C142.058 123.155 126.836 106.176 107 102.958C107 102.96 107 102.962 107 102.963Z"/>
</mask>
<path d="M156.243 144.269L144.243 144.384L144.377 158.349L158.163 156.115L156.243 144.269ZM109.021 89.4252L97.596 85.7549L93.3148 99.0817L107.139 101.277L109.021 89.4252ZM107 102.963L95.0011 103.117L95.1302 113.195L105.078 114.808L107 102.963ZM142.553 143.781L130.556 144.07L154.549 143.493L142.553 143.781ZM107 102.958L108.922 91.1131L94.8196 88.8252L95.001 103.111L107 102.958ZM158.163 156.115C184.051 151.919 203.814 129.483 203.814 102.409H179.814C179.814 117.523 168.777 130.081 154.323 132.424L158.163 156.115ZM107.139 101.277C128.03 104.594 144.035 122.613 144.243 144.384L168.242 144.155C167.92 110.496 143.192 82.7003 110.903 77.5736L107.139 101.277ZM149.405 48C125.148 48 104.628 63.8657 97.596 85.7549L120.446 93.0954C124.382 80.8431 135.877 72 149.405 72V48ZM203.814 102.409C203.814 72.3597 179.455 48 149.405 48V72C166.2 72 179.814 85.6145 179.814 102.409H203.814ZM105.078 114.808C119.289 117.114 130.2 129.3 130.556 144.07L154.549 143.491C153.911 117.014 134.38 95.2486 108.922 91.1183L105.078 114.808ZM154.549 143.493C153.914 117.013 134.382 95.2438 108.922 91.1131L105.078 114.803C119.29 117.109 130.202 129.296 130.556 144.069L154.549 143.493ZM95.001 103.111C95.001 103.113 95.001 103.115 95.0011 103.117L118.999 102.81C118.999 102.809 118.999 102.807 118.999 102.806L95.001 103.111Z" fill="black" mask="url(#path-2-inside-1_832_30)"/>
<mask id="path-4-inside-2_832_30" fill="white">
<path fill-rule="evenodd" clip-rule="evenodd" d="M36.2542 144.374C36.4701 116.84 56.5255 94.0312 82.8294 89.5377C77.3797 72.4087 61.3434 60 42.4089 60C18.9871 60 0 78.9871 0 102.409C0 123.74 15.7492 141.393 36.2542 144.374ZM49.9383 144.151C49.9382 144.151 49.9381 144.151 49.938 144.152C50.0577 136.445 52.2333 129.237 55.9404 123.052C52.2334 129.237 50.058 136.445 49.9383 144.151Z"/>
</mask>
<path d="M82.8294 89.5377L84.85 101.366L98.4464 99.0436L94.2646 85.8995L82.8294 89.5377ZM36.2542 144.374L34.5278 156.25L48.1459 158.229L48.2538 144.469L36.2542 144.374ZM49.9383 144.151L52.1498 155.946L61.7847 154.139L61.9369 144.338L49.9383 144.151ZM49.938 144.152L37.9394 143.965L37.7112 158.653L52.1494 155.946L49.938 144.152ZM55.9404 123.052L66.2332 129.221L45.6478 116.882L55.9404 123.052ZM80.8087 77.709C48.8679 83.1655 24.5168 110.841 24.2546 144.28L48.2538 144.469C48.4235 122.84 64.1831 104.897 84.85 101.366L80.8087 77.709ZM42.4089 72C55.9675 72 67.4829 80.8822 71.3942 93.1758L94.2646 85.8995C87.2765 63.9351 66.7193 48 42.4089 48V72ZM12 102.409C12 85.6145 25.6145 72 42.4089 72V48C12.3597 48 -12 72.3597 -12 102.409H12ZM37.9806 132.499C23.2888 130.363 12 117.694 12 102.409H-12C-12 129.787 8.20966 152.423 34.5278 156.25L37.9806 132.499ZM47.7269 132.357C47.7805 132.347 47.8284 132.338 47.8694 132.331C47.9103 132.324 47.9455 132.318 47.973 132.313C48.0003 132.309 48.0224 132.305 48.0359 132.303C48.0428 132.302 48.0483 132.301 48.0517 132.301C48.0547 132.3 48.0574 132.3 48.0569 132.3C48.0569 132.3 48.0569 132.3 48.0569 132.3C48.0569 132.3 48.0569 132.3 48.0569 132.3C48.0569 132.3 48.0569 132.3 48.0568 132.3C48.0568 132.3 48.0567 132.3 48.0566 132.3C48.0564 132.3 48.056 132.3 48.0556 132.3C48.0547 132.3 48.0534 132.3 48.0516 132.301C48.0482 132.301 48.0427 132.302 48.0358 132.303C48.0223 132.305 48.0002 132.309 47.9728 132.313C47.9453 132.318 47.9101 132.324 47.8692 132.331C47.8281 132.338 47.7801 132.347 47.7265 132.357L52.1494 155.946C52.0958 155.956 52.0478 155.965 52.0068 155.972C51.966 155.979 51.9308 155.985 51.9032 155.989C51.876 155.994 51.8539 155.998 51.8404 156C51.8335 156.001 51.828 156.002 51.8246 156.002C51.8215 156.003 51.8189 156.003 51.8193 156.003C51.8193 156.003 51.8193 156.003 51.8194 156.003C51.8194 156.003 51.8194 156.003 51.8194 156.003C51.8194 156.003 51.8194 156.003 51.8194 156.003C51.8195 156.003 51.8196 156.003 51.8197 156.003C51.8199 156.003 51.8202 156.003 51.8207 156.003C51.8215 156.003 51.8229 156.003 51.8246 156.002C51.828 156.002 51.8336 156.001 51.8405 156C51.854 155.998 51.8761 155.994 51.9034 155.989C51.931 155.985 51.9662 155.979 52.0071 155.972C52.0481 155.965 52.0961 155.956 52.1498 155.946L47.7269 132.357ZM61.9365 144.338C62.0226 138.798 63.5808 133.646 66.2331 129.221L45.6478 116.882C40.8858 124.827 38.0928 134.091 37.9394 143.965L61.9365 144.338ZM61.9369 144.338C62.0229 138.798 63.581 133.646 66.2332 129.221L45.6477 116.882C40.8858 124.827 38.093 134.091 37.9398 143.965L61.9369 144.338Z" fill="black" mask="url(#path-4-inside-2_832_30)"/>
<path d="M57.9839 50.2883L56.7521 56.1605L61.3666 57.1285L63.3983 52.8737L57.9839 50.2883ZM133.395 50.4221L127.972 52.9882L130.019 57.3162L134.694 56.2799L133.395 50.4221ZM155.157 49.9055L154.141 55.8188L163.765 57.4726L160.892 48.14L155.157 49.9055ZM36.1187 50.0347L30.3804 48.2818L27.4922 57.7365L37.2125 55.9342L36.1187 50.0347ZM95.6578 20.5204C76.6444 20.5204 60.2399 31.6393 52.5695 47.7029L63.3983 52.8737C69.1517 40.8246 81.4409 32.5204 95.6578 32.5204V20.5204ZM138.819 47.8561C131.18 31.7098 114.731 20.5204 95.6578 20.5204V32.5204C109.92 32.5204 122.242 40.8775 127.972 52.9882L138.819 47.8561ZM145.591 43.0929C140.962 43.0929 136.446 43.6002 132.097 44.5643L134.694 56.2799C138.196 55.5036 141.841 55.0929 145.591 55.0929V43.0929ZM156.173 43.9922C152.73 43.4005 149.194 43.0929 145.591 43.0929V55.0929C148.51 55.0929 151.366 55.342 154.141 55.8188L156.173 43.9922ZM95.6578 12C120.944 12 142.348 28.691 149.423 51.671L160.892 48.14C152.311 20.2684 126.359 0 95.6578 0V12ZM41.8569 51.7877C48.8951 28.7477 70.3285 12 95.6578 12V0C64.9046 0 38.917 20.337 30.3804 48.2818L41.8569 51.7877ZM46.4088 43.0929C42.5251 43.0929 38.7196 43.4502 35.0248 44.1353L37.2125 55.9342C40.1893 55.3822 43.2625 55.0929 46.4088 55.0929V43.0929ZM59.2157 44.4161C55.0785 43.5482 50.7939 43.0929 46.4088 43.0929V55.0929C49.9613 55.0929 53.4204 55.4616 56.7521 56.1605L59.2157 44.4161Z" fill="black"/>
</svg>
