<svg width="197" height="197" viewBox="0 0 197 197" fill="none" xmlns="http://www.w3.org/2000/svg">
<path d="M144.271 151.593C144.271 176.669 123.943 196.998 98.8661 196.998C73.7895 196.998 53.4609 176.669 53.4609 151.593C53.4609 126.516 73.7895 106.188 98.8661 106.188C123.943 106.188 144.271 126.516 144.271 151.593Z" fill="black"/>
<path fill-rule="evenodd" clip-rule="evenodd" d="M197 106.186C197 128.771 180.511 147.504 158.915 151.005C158.631 121.331 136.825 96.8055 108.357 92.2854C114.228 74.0085 131.367 60.7812 151.595 60.7812C176.671 60.7812 197 81.1099 197 106.186Z" fill="black"/>
<path fill-rule="evenodd" clip-rule="evenodd" d="M38.816 151.117C39.0442 121.636 60.5164 97.2122 88.6796 92.4C82.8431 74.0638 65.6753 60.7812 45.4052 60.7812C20.3286 60.7812 0 81.1099 0 106.186C0 129.025 16.8621 147.925 38.816 151.117Z" fill="black"/>
<path fill-rule="evenodd" clip-rule="evenodd" d="M57.7983 47.4174C64.9844 32.3679 80.3449 21.9703 98.1339 21.9703C115.979 21.9703 131.381 32.434 138.538 47.5607C142.74 46.6289 147.11 46.1375 151.595 46.1375C155.086 46.1375 158.509 46.4356 161.837 47.0075C153.456 19.7853 128.106 0 98.1339 0C68.1114 0 42.7258 19.8524 34.3882 47.1459C37.9596 46.4837 41.642 46.1375 45.4053 46.1375C49.6546 46.1375 53.7999 46.5786 57.7983 47.4174Z" fill="black"/>
</svg>
