<?xml version="1.0" encoding="utf-8"?>
<svg xmlns="http://www.w3.org/2000/svg" viewBox="0 0 32 32" width="512" height="512">
  <path d="M14 3C12.90625 3 12 3.90625 12 5L12 7.3125C11.042969 7.78125 10.347656 8.605469 9.875 9.5C9.285156 10.613281 9 11.867188 9 13C9 13.792969 9.535156 14.417969 10 14.6875L10 22.28125C9.535156 22.542969 9 23.191406 9 24L9 26C9 27.644531 10.355469 29 12 29L20 29C21.644531 29 23 27.644531 23 26L23 24C23 23.191406 22.464844 22.542969 22 22.28125L22 14.6875C22.464844 14.417969 23 13.792969 23 13C23 11.859375 22.714844 10.613281 22.125 9.5C21.652344 8.605469 20.957031 7.78125 20 7.3125L20 5C20 3.90625 19.09375 3 18 3 Z M 14 5L18 5L18 7L14 7 Z M 13.21875 9L18.78125 9C19.414063 9.175781 19.972656 9.675781 20.375 10.4375C20.785156 11.214844 21 12.203125 21 13L13 13L13 15L20 15L20 22L13 22L13 24L20.9375 24C20.9375 24 20.972656 24.023438 21 24.03125L21 26C21 26.554688 20.554688 27 20 27L12 27C11.445313 27 11 26.554688 11 26L11 24C11.023438 23.992188 11.0625 24 11.0625 24L12 23.96875L12 13.03125L11.03125 13C11.03125 13 11.007813 13.003906 11 13C11 12.214844 11.214844 11.21875 11.625 10.4375C12.027344 9.671875 12.589844 9.171875 13.21875 9Z" fill="#000" />
</svg>