<svg width="232" height="176" viewBox="0 0 232 176" fill="none" xmlns="http://www.w3.org/2000/svg">
<ellipse cx="116" cy="59.5" rx="54" ry="53.5" stroke="black" stroke-width="12"/>
<path d="M33.5 59.3125V53.3125H39.5V59.3125H33.5ZM198.5 59.3125H192.5V53.3125H198.5V59.3125ZM226 59.3125V53.3125H232V59.3125H226ZM6 59.3125H0V53.3125H6V59.3125ZM116 147.812C67.1228 147.812 27.5 108.19 27.5 59.3125H39.5C39.5 101.562 73.7502 135.812 116 135.812V147.812ZM204.5 59.3125C204.5 108.19 164.877 147.812 116 147.812V135.812C158.25 135.812 192.5 101.562 192.5 59.3125H204.5ZM198.5 53.3125H226V65.3125H198.5V53.3125ZM116 163.312C173.438 163.312 220 116.75 220 59.3125H232C232 123.378 180.065 175.312 116 175.312V163.312ZM12 59.3125C12 116.75 58.5624 163.312 116 163.312V175.312C51.935 175.312 0 123.378 0 59.3125H12ZM6 53.3125H33.5V65.3125H6V53.3125Z" fill="black"/>
</svg>
